<svg width="40" height="40" viewBox="0 0 40 40" fill="none" xmlns="http://www.w3.org/2000/svg">
<path d="M20 4C11.1634 4 4 11.1634 4 20C4 28.8366 11.1634 36 20 36C28.8366 36 36 28.8366 36 20C36 11.1634 28.8366 4 20 4ZM20 7C27.1797 7 33 12.8203 33 20C33 27.1797 27.1797 33 20 33C12.8203 33 7 27.1797 7 20C7 12.8203 12.8203 7 20 7Z" fill="white"/>
<path d="M20 11C15.0294 11 11 15.0294 11 20C11 24.9706 15.0294 29 20 29C24.9706 29 29 24.9706 29 20C29 15.0294 24.9706 11 20 11ZM20 14C23.3137 14 26 16.6863 26 20C26 23.3137 23.3137 26 20 26C16.6863 26 14 23.3137 14 20C14 16.6863 16.6863 14 20 14Z" fill="white" fill-opacity="0.72"/>
<path d="M20 16.5C18.067 16.5 16.5 18.067 16.5 20C16.5 21.933 18.067 23.5 20 23.5C21.933 23.5 23.5 21.933 23.5 20C23.5 18.067 21.933 16.5 20 16.5Z" fill="white"/>
<path d="M27.425 9.4541L30.354 12.383L23.5355 19.2015L21.4142 17.0802L27.425 11.0694V9.4541Z" fill="white"/>
<path d="M30.354 12.383H26.111V8.14001L30.354 12.383Z" fill="white"/>
</svg>
